<svg viewBox="0 0 24 24" fill="none" xmlns="http://www.w3.org/2000/svg"><path d="M12 16L12 11" stroke="currentColor" stroke-width="1.5" stroke-linecap="round" stroke-linejoin="round"></path><circle cx="12" cy="8" r="1" transform="rotate(-180 12 8)" fill="currentColor"></circle><path fill-rule="evenodd" clip-rule="evenodd" d="M20.5 12C20.5 16.6944 16.6944 20.5 12 20.5C9.28318 20.5 6.86407 19.2254 5.30802 17.2415C5.06176 16.9276 4.62323 16.8205 4.27766 17.02C3.90466 17.2354 3.78585 17.721 4.04724 18.0633C5.87437 20.4562 8.75689 22 12 22C17.5228 22 22 17.5228 22 12C22 6.47715 17.5228 2 12 2C6.47715 2 2 6.47715 2 12C2 12.7247 2.07708 13.4313 2.2235 14.1123C2.32624 14.5901 2.86838 14.8001 3.29165 14.5557C3.59327 14.3816 3.73564 14.0263 3.66698 13.6849C3.55746 13.1403 3.5 12.5769 3.5 12C3.5 7.30558 7.30558 3.5 12 3.5C16.6944 3.5 20.5 7.30558 20.5 12Z" fill="#000"></path></svg>