<svg viewBox="0 0 22 24" fill="none" xmlns="http://www.w3.org/2000/svg"><path d="M1.78856 9.83359C1.87688 8.24384 3.19174 7 4.78395 7H17.2161C18.8083 7 20.1231 8.24384 20.2114 9.83359L20.767 19.8336C20.8625 21.5532 19.4939 23 17.7716 23H4.22839C2.50613 23 1.13748 21.5532 1.23301 19.8336L1.78856 9.83359Z" stroke="currentColor" stroke-width="2"></path><path d="M15 11C15 11.5523 15.4477 12 16 12C16.5523 12 17 11.5523 17 11H15ZM5 11C5 11.5523 5.44772 12 6 12C6.55228 12 7 11.5523 7 11H5ZM15 6V11H17V6H15ZM7 11V6H5V11H7ZM11 2C13.2091 2 15 3.79086 15 6H17C17 2.68629 14.3137 0 11 0V2ZM11 0C7.68629 0 5 2.68629 5 6H7C7 3.79086 8.79086 2 11 2V0Z" fill="#000"></path></svg>