<svg width="40" height="40" viewBox="0 0 40 40" fill="none" xmlns="http://www.w3.org/2000/svg">
  <style>
    .fill { fill: #000; }
    @media (prefers-color-scheme: dark) {
      .fill { fill: #fff; }
    }
  </style>
  <path d="M0 20.0249C0 14.8679 1.76133 10.612 5.33336 7.15703C8.90489 3.70256 13.2105 2 18.3478 2C23.7789 2 28.672 4.45309 32.1458 8.509L27.0084 12.9649C24.709 10.3118 21.8216 9.0097 18.3478 9.0097C15.3144 9.0097 12.7701 10.0615 10.6662 12.1645C8.5623 14.267 7.53502 16.8707 7.53502 20.0249C7.53502 23.1797 8.5623 25.7834 10.6173 27.8859C12.7218 29.939 15.2655 30.9903 18.3478 30.9903C21.871 30.9903 24.7574 29.6383 27.0573 26.9843L32.1951 31.4411C28.7208 35.5968 23.7789 38 18.3478 38C13.2105 38 8.90489 36.2979 5.33336 32.8928C1.76133 29.4379 0 25.182 0 20.0249ZM29.7765 18.5605C30.0398 18.4857 30.1784 18.1849 30.0703 17.9235L28.6627 14.5296C28.8862 14.3174 29.123 14.1201 29.3731 13.9377L32.233 16.1248C32.4531 16.2929 32.7656 16.2186 32.8938 15.9675L34.5608 12.7027C34.862 12.7539 35.1572 12.8247 35.4471 12.9149L35.5906 16.6091C35.6014 16.894 35.8519 17.1021 36.1207 17.0498L39.607 16.3739C39.7548 16.6475 39.8821 16.9355 39.9971 17.2317L37.3209 19.65C37.1141 19.836 37.1141 20.1701 37.3209 20.3562L40 22.777C39.8855 23.0711 39.7504 23.355 39.6011 23.6312L36.1207 22.9563C35.8519 22.9041 35.6019 23.1121 35.5906 23.3965L35.4471 27.0857C35.3017 27.1308 35.1577 27.1794 35.0079 27.2153C34.8575 27.2512 34.7077 27.2727 34.5573 27.2973L32.8938 24.0386C32.7656 23.7875 32.4531 23.7127 32.233 23.8813L29.378 26.0649C29.1289 25.884 28.8887 25.6892 28.6632 25.476L30.0703 22.0826C30.1784 21.8212 30.0398 21.5204 29.7765 21.4456L26.359 20.4786C26.3393 20.1599 26.3344 19.8427 26.3536 19.5291L29.7765 18.5605ZM32.1008 20.0031C32.1008 20.7682 32.6953 21.3887 33.4293 21.3887C34.1633 21.3887 34.7578 20.7682 34.7578 20.0031C34.7578 19.2375 34.1633 18.6174 33.4293 18.6174C32.6953 18.6174 32.1008 19.2375 32.1008 20.0031Z" class="fill" />
</svg>
