<svg viewBox="0 0 23 21" fill="none" xmlns="http://www.w3.org/2000/svg"><path d="M15.5 13.5L11.5 4L10.5 1.5H15.5" stroke="currentColor" stroke-width="1.5" stroke-linecap="round" stroke-linejoin="round"></path><path fill-rule="evenodd" clip-rule="evenodd" d="M9.87895 1.07953C10.0185 0.873449 10.2511 0.75 10.5 0.75H15.5C15.9142 0.75 16.25 1.08579 16.25 1.5C16.25 1.91421 15.9142 2.25 15.5 2.25H11.6078L12.1939 3.71518L16.1912 13.209C16.352 13.5907 16.1728 14.0305 15.791 14.1912C15.4093 14.352 14.9695 14.1728 14.8088 13.791L10.8088 4.29104L10.8035 4.27859L10.8036 4.27854L9.80365 1.77854C9.71122 1.54747 9.73943 1.28561 9.87895 1.07953Z" fill="currentColor"></path><path d="M4 13L9 6.5" stroke="currentColor" stroke-width="1.5" stroke-linecap="round" stroke-linejoin="round"></path><path d="M9 4H1" stroke="currentColor" stroke-width="1.5" stroke-linecap="round" stroke-linejoin="round"></path><path fill-rule="evenodd" clip-rule="evenodd" d="M11.3239 10.6806C11.4956 10.4137 11.4555 10.0548 11.2599 9.80493C10.9883 9.45816 10.4324 9.32819 10.1814 9.69014C9.70109 10.3829 9.3539 11.1846 9.18394 12.0655C8.53005 15.4548 10.7475 18.7325 14.1368 19.3864C17.5261 20.0402 20.8037 17.8228 21.4576 14.4335C22.1115 11.0442 19.894 7.76658 16.5048 7.11269C16.4635 7.10474 16.4223 7.09721 16.3812 7.0901C15.947 7.01519 15.6506 7.50322 15.7073 7.94011C15.7102 7.96187 15.7127 7.98371 15.715 8.00561C15.7437 8.28471 15.9451 8.53238 16.2206 8.58553C18.7964 9.08249 20.4817 11.5735 19.9848 14.1493C19.4878 16.7252 16.9968 18.4105 14.421 17.9135C11.8451 17.4166 10.1598 14.9255 10.6568 12.3497C10.775 11.7372 11.0059 11.175 11.3239 10.6806Z" fill="#000"></path></svg>