 <svg viewBox="0 0 18 24" fill="#000" xmlns="http://www.w3.org/2000/svg">
          <path
            d="M9.00109 14C12.448 14.0004 14.7267 15.9747 16.0958 18.1367C17.1493 19.8004 17.7203 21.6528 17.9191 23.0039C17.9994 23.5502 17.5532 23.9998 17.0011 24C16.4489 24 15.993 23.5507 15.8927 23.0078C15.7006 21.9664 15.2393 20.5226 14.4064 19.207C13.2758 17.4217 11.5532 16.0004 9.00109 16C6.44869 16 4.72656 17.4217 3.59582 19.207C2.76283 20.5225 2.30067 21.9654 2.10851 23.0068C2.00825 23.5502 1.55267 24 1.00011 24C0.44762 24 0.000768885 23.5505 0.0811683 23.0039C0.280145 21.6527 0.852787 19.8004 1.90636 18.1367C3.27565 15.9747 5.55392 14 9.00109 14ZM9.00011 0.5C12.3138 0.5 15.0001 3.18629 15.0001 6.5C15.0001 9.81371 12.3138 12.5 9.00011 12.5C5.68643 12.5 3.00011 9.81369 3.00011 6.5C3.00011 3.18631 5.68643 0.500029 9.00011 0.5ZM9.00011 2.5C6.791 2.50003 5.00011 4.29088 5.00011 6.5C5.00011 8.70912 6.791 10.5 9.00011 10.5C11.2093 10.5 13.0001 8.70914 13.0001 6.5C13.0001 4.29086 11.2093 2.5 9.00011 2.5Z"
            fill="currentColor"
          ></path>
        </svg>